# xmcd
#
# Track frame offsets:
#	150
#	10290
#	27970
#	40225
#	51982
#	61935
#	78070
#	88255
#	103460
#	114815
#	126762
#	139555
#
# Disc length: 2027 seconds
#
# Revision: 0
# Processed by: cddbd v1.4PL0 Copyright (c) Steve Scherf et al.
# Submitted via: dBpowerAMP V4.0
#
DISCID=9807e90c
DTITLE=Ralph Stanley II - Listen to My Hammer Ring
DYEAR=1998
DGENRE=Bluegrass
TTITLE0=Ralph Stanley II - Highway of Regret
TTITLE1=Ralph Stanley II - Mary, Merry Christmas
TTITLE2=Ralph Stanley II - Blues Eyes Crying in the Rain
TTITLE3=Ralph Stanley II - I Hear a Choo Choo Coming 
TTITLE4=Ralph Stanley II - God Gave You to Me
TTITLE5=Ralph Stanley II - Little Darling Pal of Mine
TTITLE6=Ralph Stanley II - Katie Daley
TTITLE7=Ralph Stanley II - Another Song, Another Drink
TTITLE8=Ralph Stanley II - I'll Just Go Away
TTITLE9=Ralph Stanley II - Listen to My Hammer Ring
TTITLE10=Ralph Stanley II - Jesus Savior Pilot Me
TTITLE11=Ralph Stanley II - Strolling in the Moonlight
EXTD=
EXTT0=
EXTT1=
EXTT2=
EXTT3=
EXTT4=
EXTT5=
EXTT6=
EXTT7=
EXTT8=
EXTT9=
EXTT10=
EXTT11=
PLAYORDER=
